Regie: Ron Clements, John Musker
 
Met de stemmen van: Linda Wagenmakers, Jeroen van der Boom, Georgina Verbaan, Ruth Jacott, Stanley Burleson.

Genre: Familiefilm 

Lengte: 98 minuten 

De jonge Tiana leeft in de roemruchte Jazz Periode in New Orleans. Naveen is als kikker ten einde raad en komt op een gemaskerd bal terecht. Daar ziet 
hij Tiana aan voor een prinses en schiet hem het sprookje te binnen, waarbij een prinses een kikker kust en weer man wordt. Hij belooft Tiana haar 
restaurant als zij hem kust. Omdat Tiana geen prinses is veranderd nu ook zij in een kikker. De twee ruziënde kikkers gaan op zoek naar Mama Odie, 
diep in het moeras. Zij kan hen hopelijk vertellen wat ze moeten doen om weer mens te worden. Onderweg krijgen ze de hulp van Louis, een trompet 
spelende krokodil en verliefde vuurvlieg Raymond.
 
http://www.moviemeter.nl/film/46991
 
http://www.imdb.com/title/tt0780521/

Nederlands gesproken.

Hoesje bijgesloten.

General
Complete name                    : De Prinses en de Kikker-AC3-5,1-DVDRip[Ned]2009 2Lions-TeamDe Prinses en de Kikker-AC3-5,1-DVDRip[Ned]2009.avi
Format                           : AVI
Format/Info                      : Audio Video Interleave
File size                        : 1.36 GiB
Duration                         : 1h 33mn
Overall bit rate                 : 2 075 Kbps
Writing application              : VirtualDubMod 1.5.4.1 (build 2178/release)
Writing library                  : VirtualDubMod build 2178/release

Video
ID                               : 0
Format                           : MPEG-4 Visual
Format profile                   : Simple@L3
Format settings, BVOP            : No
Format settings, QPel            : No
Format settings, GMC             : No warppoints
Format settings, Matrix          : Default (H.263)
Codec ID                         : XVID
Codec ID/Hint                    : XviD
Duration                         : 1h 33mn
Bit rate                         : 1 681 Kbps
Width                            : 720 pixels
Height                           : 400 pixels
Display aspect ratio             : 16:9
Frame rate                       : 25.000 fps
Resolution                       : 24 bits
Colorimetry                      : 4:2:0
Scan type                        : Progressive
Bits/(Pixel*Frame)               : 0.233
Stream size                      : 1.10 GiB (81%)
Writing library                  : XviD 1.1.2 (UTC 2006-11-01)

Audio
ID                               : 1
Format                           : AC-3
Format/Info                      : Audio Coding 3
Codec ID                         : 2000
Duration                         : 1h 33mn
Bit rate mode                    : Constant
Bit rate                         : 384 Kbps
Channel(s)                       : 6 channels
Channel positions                : Front: L C R, Surround: L R, LFE
Sampling rate                    : 48.0 KHz
Stream size                      : 258 MiB (19%)
Alignment                        : Split accross interleaves
Interleave, duration             : 40 ms (1.00 video frame)
Interleave, preload duration     : 500 ms

Brought to you by 
2Lions Team

meer zien??
Kom dan eens kijken op ons forum 
                    
http://www.2lions.ons-forum.nl

2Lions the site to be for all your Dutch MOVIES and more

******************************************

DON T HIT AND RUN Niet gelijk afhaken als de FILM binnen is blijf seeden. 

Don`t quit after you finished the download, but keep seeding

There are fake torrents from uploaders who use our team name.
Those are not ours, or members from our team.
We 2Lions-Team are not responsible for the fake posts on our name

Wij 2Lions-Team zijn niet verantwoordelijk voor die zieke FAKE posten die op onze naam worden gedaan

Please check our site !!!

to the fakers , get a life !!!